<mxfile host="app.diagrams.net" agent="Mozilla/5.0 (Windows NT 10.0; Win64; x64) AppleWebKit/537.36 (KHTML, like Gecko) Chrome/140.0.0.0 Safari/537.36" version="27.1.6">
  <diagram name="Page-1" id="kdq6qScLnGzMR4BYstJX">
    <mxGraphModel dx="1539" dy="910" grid="0" gridSize="10" guides="1" tooltips="1" connect="1" arrows="1" fold="1" page="1" pageScale="1" pageWidth="2000" pageHeight="1200" math="0" shadow="0">
      <root>
        <mxCell id="0" />
        <mxCell id="1" parent="0" />
        <mxCell id="yvHHZgAvG7D3nn2s4Wgv-1" style="edgeStyle=orthogonalEdgeStyle;rounded=0;orthogonalLoop=1;jettySize=auto;html=1;exitX=1;exitY=0.5;exitDx=0;exitDy=0;entryX=0;entryY=0.5;entryDx=0;entryDy=0;fontStyle=1" edge="1" parent="1" source="yvHHZgAvG7D3nn2s4Wgv-3" target="yvHHZgAvG7D3nn2s4Wgv-14">
          <mxGeometry relative="1" as="geometry" />
        </mxCell>
        <mxCell id="yvHHZgAvG7D3nn2s4Wgv-2" value="&lt;b&gt;&lt;font style=&quot;font-size: 14px;&quot;&gt;视频数据&lt;/font&gt;&lt;/b&gt;" style="edgeLabel;html=1;align=center;verticalAlign=middle;resizable=0;points=[];" vertex="1" connectable="0" parent="yvHHZgAvG7D3nn2s4Wgv-1">
          <mxGeometry x="-0.1072" y="1" relative="1" as="geometry">
            <mxPoint x="-1" as="offset" />
          </mxGeometry>
        </mxCell>
        <mxCell id="yvHHZgAvG7D3nn2s4Wgv-3" value="&lt;b&gt;监控摄像头&lt;/b&gt;" style="rounded=0;whiteSpace=wrap;html=1;fontSize=16;" vertex="1" parent="1">
          <mxGeometry x="254" y="300" width="80" height="80" as="geometry" />
        </mxCell>
        <mxCell id="yvHHZgAvG7D3nn2s4Wgv-4" style="edgeStyle=orthogonalEdgeStyle;rounded=0;orthogonalLoop=1;jettySize=auto;html=1;exitX=1;exitY=0.5;exitDx=0;exitDy=0;entryX=0.5;entryY=1;entryDx=0;entryDy=0;fontStyle=1" edge="1" parent="1" source="yvHHZgAvG7D3nn2s4Wgv-6" target="yvHHZgAvG7D3nn2s4Wgv-27">
          <mxGeometry relative="1" as="geometry" />
        </mxCell>
        <mxCell id="yvHHZgAvG7D3nn2s4Wgv-5" value="&lt;b&gt;符合条件的气象数据&lt;/b&gt;" style="edgeLabel;html=1;align=center;verticalAlign=middle;resizable=0;points=[];fontSize=14;" vertex="1" connectable="0" parent="yvHHZgAvG7D3nn2s4Wgv-4">
          <mxGeometry x="-0.476" relative="1" as="geometry">
            <mxPoint as="offset" />
          </mxGeometry>
        </mxCell>
        <mxCell id="yvHHZgAvG7D3nn2s4Wgv-6" value="1.1.3" style="swimlane;html=1;startSize=20;fontStyle=1;collapsible=0;horizontal=1;swimlaneLine=1;strokeWidth=2;swimlaneFillColor=#ffffff;whiteSpace=wrap;rounded=1;fontSize=15;" vertex="1" parent="1">
          <mxGeometry x="449" y="563" width="158" height="64" as="geometry" />
        </mxCell>
        <mxCell id="yvHHZgAvG7D3nn2s4Wgv-7" value="采集气象数据" style="text;html=1;align=center;verticalAlign=middle;whiteSpace=wrap;rounded=0;fontSize=15;fontStyle=1" vertex="1" parent="yvHHZgAvG7D3nn2s4Wgv-6">
          <mxGeometry x="28" y="26" width="102" height="30" as="geometry" />
        </mxCell>
        <mxCell id="yvHHZgAvG7D3nn2s4Wgv-8" style="edgeStyle=orthogonalEdgeStyle;rounded=0;orthogonalLoop=1;jettySize=auto;html=1;exitX=1;exitY=0.5;exitDx=0;exitDy=0;entryX=0;entryY=0.5;entryDx=0;entryDy=0;" edge="1" parent="1" source="yvHHZgAvG7D3nn2s4Wgv-10" target="yvHHZgAvG7D3nn2s4Wgv-27">
          <mxGeometry relative="1" as="geometry" />
        </mxCell>
        <mxCell id="yvHHZgAvG7D3nn2s4Wgv-9" value="&lt;b&gt;&lt;font style=&quot;font-size: 14px;&quot;&gt;格式化的传感器数据&lt;/font&gt;&lt;/b&gt;" style="edgeLabel;html=1;align=center;verticalAlign=middle;resizable=0;points=[];" vertex="1" connectable="0" parent="yvHHZgAvG7D3nn2s4Wgv-8">
          <mxGeometry x="-0.41" y="1" relative="1" as="geometry">
            <mxPoint x="38" y="1" as="offset" />
          </mxGeometry>
        </mxCell>
        <mxCell id="yvHHZgAvG7D3nn2s4Wgv-10" value="1.1.2" style="swimlane;html=1;startSize=20;fontStyle=1;collapsible=0;horizontal=1;swimlaneLine=1;strokeWidth=2;swimlaneFillColor=#ffffff;whiteSpace=wrap;rounded=1;fontSize=15;" vertex="1" parent="1">
          <mxGeometry x="449" y="427" width="158" height="64" as="geometry" />
        </mxCell>
        <mxCell id="yvHHZgAvG7D3nn2s4Wgv-11" value="清洗传感器数据" style="text;html=1;align=center;verticalAlign=middle;whiteSpace=wrap;rounded=0;fontSize=15;fontStyle=1" vertex="1" parent="yvHHZgAvG7D3nn2s4Wgv-10">
          <mxGeometry x="21" y="25" width="116" height="30" as="geometry" />
        </mxCell>
        <mxCell id="yvHHZgAvG7D3nn2s4Wgv-12" style="edgeStyle=orthogonalEdgeStyle;rounded=0;orthogonalLoop=1;jettySize=auto;html=1;exitX=1;exitY=0.5;exitDx=0;exitDy=0;entryX=0.5;entryY=0;entryDx=0;entryDy=0;" edge="1" parent="1" source="yvHHZgAvG7D3nn2s4Wgv-14" target="yvHHZgAvG7D3nn2s4Wgv-27">
          <mxGeometry relative="1" as="geometry" />
        </mxCell>
        <mxCell id="yvHHZgAvG7D3nn2s4Wgv-13" value="&lt;b&gt;&lt;font style=&quot;font-size: 14px;&quot;&gt;格式化的视频数据&lt;/font&gt;&lt;/b&gt;" style="edgeLabel;html=1;align=center;verticalAlign=middle;resizable=0;points=[];" vertex="1" connectable="0" parent="yvHHZgAvG7D3nn2s4Wgv-12">
          <mxGeometry x="-0.4402" y="-2" relative="1" as="geometry">
            <mxPoint x="-1" y="-2" as="offset" />
          </mxGeometry>
        </mxCell>
        <mxCell id="yvHHZgAvG7D3nn2s4Wgv-14" value="1.1.1" style="swimlane;html=1;startSize=20;fontStyle=1;collapsible=0;horizontal=1;swimlaneLine=1;strokeWidth=2;swimlaneFillColor=#ffffff;whiteSpace=wrap;rounded=1;fontSize=15;" vertex="1" parent="1">
          <mxGeometry x="449" y="308" width="158" height="64" as="geometry" />
        </mxCell>
        <mxCell id="yvHHZgAvG7D3nn2s4Wgv-15" value="清洗摄像头数据" style="text;html=1;align=center;verticalAlign=middle;whiteSpace=wrap;rounded=0;fontSize=15;fontStyle=1" vertex="1" parent="yvHHZgAvG7D3nn2s4Wgv-14">
          <mxGeometry x="23.5" y="26" width="111" height="30" as="geometry" />
        </mxCell>
        <mxCell id="yvHHZgAvG7D3nn2s4Wgv-16" style="edgeStyle=orthogonalEdgeStyle;rounded=0;orthogonalLoop=1;jettySize=auto;html=1;exitX=1;exitY=0.5;exitDx=0;exitDy=0;entryX=0;entryY=0.5;entryDx=0;entryDy=0;" edge="1" parent="1" source="yvHHZgAvG7D3nn2s4Wgv-18" target="yvHHZgAvG7D3nn2s4Wgv-10">
          <mxGeometry relative="1" as="geometry" />
        </mxCell>
        <mxCell id="yvHHZgAvG7D3nn2s4Wgv-17" value="&lt;b&gt;&lt;font style=&quot;font-size: 14px;&quot;&gt;传感器数据&lt;/font&gt;&lt;/b&gt;" style="edgeLabel;html=1;align=center;verticalAlign=middle;resizable=0;points=[];" vertex="1" connectable="0" parent="yvHHZgAvG7D3nn2s4Wgv-16">
          <mxGeometry x="-0.1536" y="3" relative="1" as="geometry">
            <mxPoint x="5" y="3" as="offset" />
          </mxGeometry>
        </mxCell>
        <mxCell id="yvHHZgAvG7D3nn2s4Wgv-18" value="&lt;b&gt;传感器数据&lt;/b&gt;" style="rounded=0;whiteSpace=wrap;html=1;fontSize=16;" vertex="1" parent="1">
          <mxGeometry x="254" y="419" width="80" height="80" as="geometry" />
        </mxCell>
        <mxCell id="yvHHZgAvG7D3nn2s4Wgv-19" style="edgeStyle=orthogonalEdgeStyle;rounded=0;orthogonalLoop=1;jettySize=auto;html=1;exitX=1;exitY=0.5;exitDx=0;exitDy=0;entryX=0;entryY=0.5;entryDx=0;entryDy=0;fontStyle=1" edge="1" parent="1" source="yvHHZgAvG7D3nn2s4Wgv-21" target="yvHHZgAvG7D3nn2s4Wgv-6">
          <mxGeometry relative="1" as="geometry" />
        </mxCell>
        <mxCell id="yvHHZgAvG7D3nn2s4Wgv-20" value="&lt;b&gt;&lt;font style=&quot;font-size: 14px;&quot;&gt;气象数据&lt;/font&gt;&lt;/b&gt;" style="edgeLabel;html=1;align=center;verticalAlign=middle;resizable=0;points=[];" vertex="1" connectable="0" parent="yvHHZgAvG7D3nn2s4Wgv-19">
          <mxGeometry x="0.0088" y="-1" relative="1" as="geometry">
            <mxPoint x="-1" as="offset" />
          </mxGeometry>
        </mxCell>
        <mxCell id="yvHHZgAvG7D3nn2s4Wgv-21" value="&lt;b&gt;气象服务系统&lt;/b&gt;" style="rounded=0;whiteSpace=wrap;html=1;fontSize=16;" vertex="1" parent="1">
          <mxGeometry x="254" y="555" width="80" height="80" as="geometry" />
        </mxCell>
        <mxCell id="yvHHZgAvG7D3nn2s4Wgv-22" style="edgeStyle=orthogonalEdgeStyle;rounded=0;orthogonalLoop=1;jettySize=auto;html=1;exitX=1;exitY=0.5;exitDx=0;exitDy=0;entryX=0.5;entryY=0;entryDx=0;entryDy=0;" edge="1" parent="1" source="yvHHZgAvG7D3nn2s4Wgv-24" target="yvHHZgAvG7D3nn2s4Wgv-37">
          <mxGeometry relative="1" as="geometry" />
        </mxCell>
        <mxCell id="yvHHZgAvG7D3nn2s4Wgv-23" value="&lt;font style=&quot;font-size: 14px;&quot;&gt;&lt;b&gt;待评定的异常数据&lt;/b&gt;&lt;/font&gt;" style="edgeLabel;html=1;align=center;verticalAlign=middle;resizable=0;points=[];" vertex="1" connectable="0" parent="yvHHZgAvG7D3nn2s4Wgv-22">
          <mxGeometry x="0.188" y="-2" relative="1" as="geometry">
            <mxPoint as="offset" />
          </mxGeometry>
        </mxCell>
        <mxCell id="yvHHZgAvG7D3nn2s4Wgv-24" value="&lt;font style=&quot;font-size: 16px;&quot;&gt;&lt;b&gt;&amp;nbsp; &amp;nbsp; &amp;nbsp; &amp;nbsp; &amp;nbsp;异常数据记录&lt;/b&gt;&lt;/font&gt;" style="html=1;dashed=0;whiteSpace=wrap;shape=mxgraph.dfd.dataStoreID;align=left;spacingLeft=3;points=[[0,0],[0.5,0],[1,0],[0,0.5],[1,0.5],[0,1],[0.5,1],[1,1]];" vertex="1" parent="1">
          <mxGeometry x="953" y="206" width="151" height="38" as="geometry" />
        </mxCell>
        <mxCell id="yvHHZgAvG7D3nn2s4Wgv-25" style="edgeStyle=orthogonalEdgeStyle;rounded=0;orthogonalLoop=1;jettySize=auto;html=1;exitX=1;exitY=0.25;exitDx=0;exitDy=0;entryX=0.5;entryY=1;entryDx=0;entryDy=0;" edge="1" parent="1" source="yvHHZgAvG7D3nn2s4Wgv-27" target="yvHHZgAvG7D3nn2s4Wgv-24">
          <mxGeometry relative="1" as="geometry" />
        </mxCell>
        <mxCell id="yvHHZgAvG7D3nn2s4Wgv-26" value="&lt;font style=&quot;font-size: 14px;&quot;&gt;&lt;b&gt;异常数据&lt;/b&gt;&lt;/font&gt;" style="edgeLabel;html=1;align=center;verticalAlign=middle;resizable=0;points=[];" vertex="1" connectable="0" parent="yvHHZgAvG7D3nn2s4Wgv-25">
          <mxGeometry x="0.1759" y="-1" relative="1" as="geometry">
            <mxPoint as="offset" />
          </mxGeometry>
        </mxCell>
        <mxCell id="yvHHZgAvG7D3nn2s4Wgv-27" value="1.1.4" style="swimlane;html=1;startSize=20;fontStyle=1;collapsible=0;horizontal=1;swimlaneLine=1;strokeWidth=2;swimlaneFillColor=#ffffff;whiteSpace=wrap;rounded=1;fontSize=15;" vertex="1" parent="1">
          <mxGeometry x="795" y="427" width="158" height="64" as="geometry" />
        </mxCell>
        <mxCell id="yvHHZgAvG7D3nn2s4Wgv-28" value="挑选出异常数据" style="text;html=1;align=center;verticalAlign=middle;whiteSpace=wrap;rounded=0;fontSize=15;fontStyle=1" vertex="1" parent="yvHHZgAvG7D3nn2s4Wgv-27">
          <mxGeometry x="21" y="25" width="116" height="30" as="geometry" />
        </mxCell>
        <mxCell id="yvHHZgAvG7D3nn2s4Wgv-29" style="edgeStyle=orthogonalEdgeStyle;rounded=0;orthogonalLoop=1;jettySize=auto;html=1;exitX=1;exitY=0.25;exitDx=0;exitDy=0;entryX=0;entryY=0.5;entryDx=0;entryDy=0;" edge="1" parent="1" source="yvHHZgAvG7D3nn2s4Wgv-37" target="yvHHZgAvG7D3nn2s4Wgv-39">
          <mxGeometry relative="1" as="geometry">
            <Array as="points">
              <mxPoint x="1449" y="451" />
              <mxPoint x="1449" y="414" />
            </Array>
          </mxGeometry>
        </mxCell>
        <mxCell id="yvHHZgAvG7D3nn2s4Wgv-30" value="低风险异常" style="edgeLabel;html=1;align=center;verticalAlign=middle;resizable=0;points=[];fontSize=14;fontStyle=1" vertex="1" connectable="0" parent="yvHHZgAvG7D3nn2s4Wgv-29">
          <mxGeometry x="-0.4399" y="1" relative="1" as="geometry">
            <mxPoint as="offset" />
          </mxGeometry>
        </mxCell>
        <mxCell id="yvHHZgAvG7D3nn2s4Wgv-31" style="edgeStyle=orthogonalEdgeStyle;rounded=0;orthogonalLoop=1;jettySize=auto;html=1;exitX=1;exitY=0.75;exitDx=0;exitDy=0;entryX=0;entryY=0.5;entryDx=0;entryDy=0;" edge="1" parent="1" source="yvHHZgAvG7D3nn2s4Wgv-37" target="yvHHZgAvG7D3nn2s4Wgv-40">
          <mxGeometry relative="1" as="geometry">
            <Array as="points">
              <mxPoint x="1452" y="483" />
              <mxPoint x="1452" y="518" />
            </Array>
          </mxGeometry>
        </mxCell>
        <mxCell id="yvHHZgAvG7D3nn2s4Wgv-32" value="&lt;font style=&quot;font-size: 14px;&quot;&gt;&lt;b&gt;高风险异常&lt;/b&gt;&lt;/font&gt;" style="edgeLabel;html=1;align=center;verticalAlign=middle;resizable=0;points=[];" vertex="1" connectable="0" parent="yvHHZgAvG7D3nn2s4Wgv-31">
          <mxGeometry x="-0.3925" y="3" relative="1" as="geometry">
            <mxPoint x="-6" y="2" as="offset" />
          </mxGeometry>
        </mxCell>
        <mxCell id="yvHHZgAvG7D3nn2s4Wgv-33" style="edgeStyle=orthogonalEdgeStyle;rounded=0;orthogonalLoop=1;jettySize=auto;html=1;exitX=0.5;exitY=1;exitDx=0;exitDy=0;entryX=0.5;entryY=0;entryDx=0;entryDy=0;" edge="1" parent="1" source="yvHHZgAvG7D3nn2s4Wgv-37" target="yvHHZgAvG7D3nn2s4Wgv-43">
          <mxGeometry relative="1" as="geometry">
            <mxPoint x="1162.4545454545455" y="619.2245677601206" as="targetPoint" />
          </mxGeometry>
        </mxCell>
        <mxCell id="yvHHZgAvG7D3nn2s4Wgv-34" value="&lt;b&gt;&lt;font style=&quot;font-size: 14px;&quot;&gt;异常信息&lt;/font&gt;&lt;/b&gt;" style="edgeLabel;html=1;align=center;verticalAlign=middle;resizable=0;points=[];" vertex="1" connectable="0" parent="yvHHZgAvG7D3nn2s4Wgv-33">
          <mxGeometry x="-0.0415" y="-1" relative="1" as="geometry">
            <mxPoint as="offset" />
          </mxGeometry>
        </mxCell>
        <mxCell id="yvHHZgAvG7D3nn2s4Wgv-35" style="edgeStyle=orthogonalEdgeStyle;rounded=0;orthogonalLoop=1;jettySize=auto;html=1;exitX=0.75;exitY=1;exitDx=0;exitDy=0;entryX=0;entryY=0.5;entryDx=0;entryDy=0;" edge="1" parent="1" source="yvHHZgAvG7D3nn2s4Wgv-37" target="yvHHZgAvG7D3nn2s4Wgv-45">
          <mxGeometry relative="1" as="geometry" />
        </mxCell>
        <mxCell id="yvHHZgAvG7D3nn2s4Wgv-36" value="&lt;b&gt;&lt;font style=&quot;font-size: 14px;&quot;&gt;紧急险情&lt;/font&gt;&lt;/b&gt;" style="edgeLabel;html=1;align=center;verticalAlign=middle;resizable=0;points=[];" vertex="1" connectable="0" parent="yvHHZgAvG7D3nn2s4Wgv-35">
          <mxGeometry x="0.1482" y="2" relative="1" as="geometry">
            <mxPoint x="7" y="-1" as="offset" />
          </mxGeometry>
        </mxCell>
        <mxCell id="yvHHZgAvG7D3nn2s4Wgv-37" value="1.2.1" style="swimlane;html=1;startSize=20;fontStyle=1;collapsible=0;horizontal=1;swimlaneLine=1;strokeWidth=2;swimlaneFillColor=#ffffff;whiteSpace=wrap;rounded=1;fontSize=15;" vertex="1" parent="1">
          <mxGeometry x="1083" y="435" width="158" height="64" as="geometry" />
        </mxCell>
        <mxCell id="yvHHZgAvG7D3nn2s4Wgv-38" value="评估异常风险" style="text;html=1;align=center;verticalAlign=middle;whiteSpace=wrap;rounded=0;fontSize=15;fontStyle=1" vertex="1" parent="yvHHZgAvG7D3nn2s4Wgv-37">
          <mxGeometry x="21" y="25" width="116" height="30" as="geometry" />
        </mxCell>
        <mxCell id="yvHHZgAvG7D3nn2s4Wgv-39" value="&lt;font style=&quot;font-size: 16px;&quot;&gt;&lt;b&gt;&amp;nbsp; &amp;nbsp; &amp;nbsp; &amp;nbsp; &amp;nbsp;低风险异常记录&lt;/b&gt;&lt;/font&gt;" style="html=1;dashed=0;whiteSpace=wrap;shape=mxgraph.dfd.dataStoreID;align=left;spacingLeft=3;points=[[0,0],[0.5,0],[1,0],[0,0.5],[1,0.5],[0,1],[0.5,1],[1,1]];" vertex="1" parent="1">
          <mxGeometry x="1498" y="395" width="165" height="38" as="geometry" />
        </mxCell>
        <mxCell id="yvHHZgAvG7D3nn2s4Wgv-40" value="&lt;font style=&quot;font-size: 16px;&quot;&gt;&lt;b&gt;&amp;nbsp; &amp;nbsp; &amp;nbsp; &amp;nbsp; &amp;nbsp;高风险异常记录&lt;/b&gt;&lt;/font&gt;" style="html=1;dashed=0;whiteSpace=wrap;shape=mxgraph.dfd.dataStoreID;align=left;spacingLeft=3;points=[[0,0],[0.5,0],[1,0],[0,0.5],[1,0.5],[0,1],[0.5,1],[1,1]];" vertex="1" parent="1">
          <mxGeometry x="1498" y="499" width="168" height="38" as="geometry" />
        </mxCell>
        <mxCell id="yvHHZgAvG7D3nn2s4Wgv-41" style="edgeStyle=orthogonalEdgeStyle;rounded=0;orthogonalLoop=1;jettySize=auto;html=1;exitX=0;exitY=0.5;exitDx=0;exitDy=0;entryX=1;entryY=0.5;entryDx=0;entryDy=0;" edge="1" parent="1" source="yvHHZgAvG7D3nn2s4Wgv-43" target="yvHHZgAvG7D3nn2s4Wgv-46">
          <mxGeometry relative="1" as="geometry" />
        </mxCell>
        <mxCell id="yvHHZgAvG7D3nn2s4Wgv-42" value="&lt;b&gt;&lt;font style=&quot;font-size: 14px;&quot;&gt;预警信息&lt;/font&gt;&lt;/b&gt;" style="edgeLabel;html=1;align=center;verticalAlign=middle;resizable=0;points=[];" vertex="1" connectable="0" parent="yvHHZgAvG7D3nn2s4Wgv-41">
          <mxGeometry x="0.1477" y="-1" relative="1" as="geometry">
            <mxPoint as="offset" />
          </mxGeometry>
        </mxCell>
        <mxCell id="yvHHZgAvG7D3nn2s4Wgv-43" value="1.2.2" style="swimlane;html=1;startSize=20;fontStyle=1;collapsible=0;horizontal=1;swimlaneLine=1;strokeWidth=2;swimlaneFillColor=#ffffff;whiteSpace=wrap;rounded=1;fontSize=15;" vertex="1" parent="1">
          <mxGeometry x="1083" y="637" width="158" height="64" as="geometry" />
        </mxCell>
        <mxCell id="yvHHZgAvG7D3nn2s4Wgv-44" value="生成预警信息" style="text;html=1;align=center;verticalAlign=middle;whiteSpace=wrap;rounded=0;fontSize=15;fontStyle=1" vertex="1" parent="yvHHZgAvG7D3nn2s4Wgv-43">
          <mxGeometry x="21" y="25" width="116" height="30" as="geometry" />
        </mxCell>
        <mxCell id="yvHHZgAvG7D3nn2s4Wgv-45" value="&lt;b&gt;应急响应模块&lt;/b&gt;" style="rounded=0;whiteSpace=wrap;html=1;fontSize=16;" vertex="1" parent="1">
          <mxGeometry x="1498" y="582" width="80" height="80" as="geometry" />
        </mxCell>
        <mxCell id="yvHHZgAvG7D3nn2s4Wgv-46" value="&lt;b&gt;铁路管理局&lt;/b&gt;" style="rounded=0;whiteSpace=wrap;html=1;fontSize=16;" vertex="1" parent="1">
          <mxGeometry x="788" y="629" width="80" height="80" as="geometry" />
        </mxCell>
      </root>
    </mxGraphModel>
  </diagram>
</mxfile>
